# Blender v2.93.4 OBJ File: 'coin.blend'
# www.blender.org
o WoCoin_Coin
v 0.123511 -0.405057 -0.380128
v -0.123511 -0.405057 -0.380128
v -0.323356 -0.405057 -0.234932
v -0.399690 -0.405057 0.000000
v -0.323356 -0.405057 0.234932
v -0.123511 -0.405057 0.380128
v 0.123511 -0.405057 0.380128
v 0.323356 -0.405057 0.234932
v 0.399690 -0.405057 0.000000
v 0.323356 -0.405057 -0.234931
v 0.097192 -0.330233 -0.299126
v -0.097192 -0.330233 -0.299126
v -0.254452 -0.330233 -0.184870
v -0.314520 -0.330233 0.000000
v -0.254451 -0.330233 0.184870
v -0.097192 -0.330233 0.299126
v 0.097192 -0.330233 0.299126
v 0.254452 -0.330233 0.184870
v 0.314520 -0.330233 0.000000
v 0.254451 -0.330233 -0.184870
v 0.220487 -0.405057 0.309671
v 0.173503 -0.330233 0.243683
v 0.360456 -0.405057 0.120751
v 0.283646 -0.330233 0.095020
v 0.363011 -0.405057 -0.112886
v 0.285657 -0.330233 -0.088831
v 0.223023 -0.405057 -0.307828
v 0.175499 -0.330233 -0.242232
v 0.003497 -0.405057 -0.380128
v 0.002752 -0.330233 -0.299126
v -0.221886 -0.405057 -0.308654
v -0.174604 -0.330233 -0.242883
v -0.360670 -0.405057 -0.120090
v -0.283815 -0.330233 -0.094500
v -0.363528 -0.405057 0.111296
v -0.286063 -0.330233 0.087580
v -0.227804 -0.405057 0.304355
v -0.179261 -0.330233 0.239499
v -0.007734 -0.405057 0.380128
v -0.006086 -0.330233 0.299126
v 0.121378 -0.468507 -0.373563
v -0.121378 -0.468507 -0.373563
v -0.317772 -0.468507 -0.230875
v -0.392788 -0.468507 0.000000
v -0.317771 -0.468508 0.230875
v -0.121378 -0.468508 0.373563
v 0.121378 -0.468508 0.373563
v 0.317772 -0.468508 0.230875
v 0.392788 -0.468508 0.000000
v 0.317771 -0.468508 -0.230874
v 0.216679 -0.468508 0.304323
v 0.354231 -0.468508 0.118666
v 0.356742 -0.468508 -0.110936
v 0.219172 -0.468507 -0.302512
v 0.003437 -0.468507 -0.373563
v -0.218054 -0.468507 -0.303324
v -0.354442 -0.468507 -0.118016
v -0.357250 -0.468507 0.109374
v -0.223870 -0.468508 0.299099
v -0.007600 -0.468508 0.373563
v 0.120237 -0.502461 -0.370051
v 0.214642 -0.502461 0.301461
v 0.350900 -0.502461 0.117550
v 0.353387 -0.502461 -0.109893
v 0.217111 -0.502461 -0.299667
v 0.003404 -0.502461 -0.370050
v -0.216003 -0.502461 -0.300472
v -0.351109 -0.502461 -0.116907
v -0.353890 -0.502461 0.108346
v -0.221764 -0.502461 0.296286
v -0.007529 -0.502461 0.370051
v -0.120237 -0.502461 -0.370050
v -0.314784 -0.502461 -0.228704
v -0.389094 -0.502461 0.000000
v -0.314783 -0.502461 0.228703
v -0.120237 -0.502461 0.370051
v 0.120237 -0.502461 0.370050
v 0.314783 -0.502461 0.228704
v 0.389094 -0.502461 0.000000
v 0.314783 -0.502461 -0.228703
vt 0.974652 0.098921
vt 0.958116 0.098921
vt 0.958116 0.069653
vt 0.974652 0.069653
vt 0.974652 0.159908
vt 0.958116 0.159908
vt 0.958116 0.129894
vt 0.974652 0.129894
vt 0.974652 0.220800
vt 0.958116 0.220800
vt 0.958116 0.190866
vt 0.974652 0.190866
vt 0.974652 0.281090
vt 0.958116 0.281090
vt 0.958116 0.252101
vt 0.974652 0.252101
vt 0.974652 0.342458
vt 0.958116 0.342458
vt 0.958116 0.313292
vt 0.974652 0.313292
vt 0.974652 0.402778
vt 0.958116 0.402778
vt 0.958116 0.374293
vt 0.974652 0.374293
vt 0.974652 0.464389
vt 0.958116 0.464389
vt 0.958116 0.435069
vt 0.974652 0.435068
vt 0.974652 0.524469
vt 0.958116 0.524469
vt 0.958116 0.495490
vt 0.974652 0.495490
vt 0.974652 0.583471
vt 0.958116 0.583471
vt 0.958116 0.555114
vt 0.974652 0.555114
vt 0.974652 0.039832
vt 0.958116 0.039832
vt 0.958116 0.009766
vt 0.974652 0.009766
vt 0.184753 0.949383
vt 0.184661 0.993845
vt 0.129019 0.993841
vt 0.143966 0.949546
vt 0.112282 0.926720
vt 0.085924 0.962526
vt 0.041473 0.930225
vt 0.079602 0.903176
vt 0.067471 0.866344
vt 0.025130 0.879912
vt 0.008040 0.827300
vt 0.054786 0.827828
vt 0.066256 0.792040
vt 0.023886 0.778544
vt 0.041490 0.724382
vt 0.078997 0.752285
vt 0.109593 0.729868
vt 0.083353 0.693971
vt 0.129045 0.660779
vt 0.142988 0.705400
vt 0.180168 0.705251
vt 0.179766 0.660783
vt 0.237264 0.660787
vt 0.222316 0.705082
vt 0.253549 0.727584
vt 0.279745 0.691657
vt 0.324808 0.724403
vt 0.286680 0.751453
vt 0.298741 0.788073
vt 0.341058 0.774426
vt 0.358242 0.827327
vt 0.311497 0.826800
vt 0.299863 0.863099
vt 0.342169 0.876780
vt 0.324793 0.930246
vt 0.287284 0.902343
vt 0.255158 0.925882
vt 0.280836 0.962178
vt 0.237238 0.993849
vt 0.223294 0.949228
vt 0.974652 0.614129
vt 0.958116 0.614129
vt 0.983501 0.039832
vt 0.983501 0.009766
vt 0.983501 0.583471
vt 0.983501 0.555114
vt 0.983501 0.524469
vt 0.983501 0.495490
vt 0.983501 0.464389
vt 0.983501 0.435068
vt 0.983501 0.402778
vt 0.983501 0.374293
vt 0.983501 0.342458
vt 0.983501 0.313292
vt 0.983501 0.281090
vt 0.983501 0.252101
vt 0.983501 0.220800
vt 0.983501 0.190866
vt 0.983501 0.159908
vt 0.983501 0.129894
vt 0.983501 0.098921
vt 0.983501 0.069653
vn 0.0376 -0.1195 -0.9921
vn 0.0275 0.3242 -0.9456
vn 0.2955 0.2924 -0.9095
vn 0.3069 -0.0631 -0.9497
vn -0.5818 -0.1438 -0.8005
vn -0.5615 0.3146 -0.7653
vn -0.3327 0.3391 -0.8799
vn -0.2639 -0.1066 -0.9586
vn -0.9412 -0.1438 -0.3057
vn -0.9041 0.3146 -0.2891
vn -0.7864 0.3391 -0.5163
vn -0.7770 -0.1066 -0.6204
vn -0.9411 -0.1438 0.3060
vn -0.9014 0.3146 0.2976
vn -0.9397 0.3391 0.0445
vn -0.9933 -0.1066 -0.0452
vn -0.5815 -0.1438 0.8007
vn -0.5543 0.3146 0.7706
vn -0.7341 0.3391 0.5883
vn -0.8302 -0.1066 0.5472
vn 0.0002 -0.1438 0.9896
vn 0.0045 0.3146 0.9492
vn -0.2481 0.3391 0.9074
vn -0.3500 -0.1066 0.9307
vn 0.5818 -0.1438 0.8005
vn 0.5615 0.3146 0.7653
vn 0.3327 0.3391 0.8799
vn 0.2639 -0.1066 0.9586
vn 0.9412 -0.1438 0.3057
vn 0.9041 0.3146 0.2891
vn 0.7864 0.3391 0.5163
vn 0.7770 -0.1066 0.6204
vn 0.9411 -0.1438 -0.3060
vn 0.9014 0.3146 -0.2976
vn 0.9397 0.3391 -0.0445
vn 0.9933 -0.1066 0.0452
vn 0.5954 -0.1403 -0.7911
vn 0.5781 0.3242 -0.7488
vn 0.7341 0.3391 -0.5883
vn 0.8302 -0.1066 -0.5472
vn 0.0300 0.9347 -0.3543
vn -0.1177 0.9246 -0.3623
vn -0.1942 0.9276 -0.3192
vn -0.3082 0.9246 -0.2239
vn -0.3447 0.9276 -0.1441
vn -0.3810 0.9246 0.0000
vn -0.3634 0.9277 0.0859
vn -0.3082 0.9246 0.2239
vn -0.2435 0.9276 0.2832
vn -0.1177 0.9246 0.3623
vn -0.0306 0.9277 0.3721
vn 0.1177 0.9246 0.3623
vn 0.1941 0.9276 0.3191
vn 0.3082 0.9246 0.2239
vn 0.3447 0.9276 0.1441
vn 0.3810 0.9246 0.0000
vn 0.3635 0.9276 -0.0860
vn 0.3082 0.9246 -0.2239
vn 0.2148 0.9402 -0.2643
vn 0.0996 0.9072 -0.4087
vn 0.6134 -0.1247 -0.7798
vn 0.7812 -0.1435 -0.6075
vn 0.9523 -0.1321 -0.2753
vn 0.9891 -0.1435 -0.0323
vn 0.9322 -0.1321 0.3370
vn 0.8192 -0.1435 0.5553
vn 0.5561 -0.1321 0.8206
vn 0.3364 -0.1435 0.9307
vn -0.0325 -0.1321 0.9907
vn -0.2749 -0.1435 0.9507
vn -0.6086 -0.1321 0.7824
vn -0.7812 -0.1435 0.6075
vn -0.9523 -0.1320 0.2753
vn -0.9891 -0.1435 0.0323
vn -0.9322 -0.1321 -0.3370
vn -0.8192 -0.1435 -0.5553
vn -0.5561 -0.1321 -0.8206
vn -0.3364 -0.1435 -0.9307
vn 0.0367 -0.0791 -0.9962
vn 0.3381 -0.1418 -0.9304
s 1
f 55/1/1 29/2/2 1/3/3 41/4/4
f 56/5/5 31/6/6 2/7/7 42/8/8
f 57/9/9 33/10/10 3/11/11 43/12/12
f 58/13/13 35/14/14 4/15/15 44/16/16
f 59/17/17 37/18/18 5/19/19 45/20/20
f 60/21/21 39/22/22 6/23/23 46/24/24
f 51/25/25 21/26/26 7/27/27 47/28/28
f 52/29/29 23/30/30 8/31/31 48/32/32
f 53/33/33 25/34/34 9/35/35 49/36/36
f 54/37/37 27/38/38 10/39/39 50/40/40
f 30/41/41 29/42/2 2/43/7 12/44/42
f 32/45/43 31/46/6 3/47/11 13/48/44
f 34/49/45 33/50/10 4/51/15 14/52/46
f 36/53/47 35/54/14 5/55/19 15/56/48
f 38/57/49 37/58/18 6/59/23 16/60/50
f 40/61/51 39/62/22 7/63/27 17/64/52
f 22/65/53 21/66/26 8/67/31 18/68/54
f 24/69/55 23/70/30 9/71/35 19/72/56
f 26/73/57 25/74/34 10/75/39 20/76/58
f 28/77/59 27/78/38 1/79/3 11/80/60
f 20/76/58 28/77/59 11/80/60 30/41/41 12/44/42 32/45/43 13/48/44 34/49/45 14/52/46 36/53/47 15/56/48 38/57/49 16/60/50 40/61/51 17/64/52 22/65/53 18/68/54 24/69/55 19/72/56 26/73/57
f 17/64/52 7/63/27 21/66/26 22/65/53
f 48/32/32 8/31/31 21/26/26 51/25/25
f 18/68/54 8/67/31 23/70/30 24/69/55
f 49/36/36 9/35/35 23/30/30 52/29/29
f 19/72/56 9/71/35 25/74/34 26/73/57
f 50/81/40 10/82/39 25/34/34 53/33/33
f 20/76/58 10/75/39 27/78/38 28/77/59
f 41/4/4 1/3/3 27/38/38 54/37/37
f 11/80/60 1/79/3 29/42/2 30/41/41
f 42/8/8 2/7/7 29/2/2 55/1/1
f 12/44/42 2/43/7 31/46/6 32/45/43
f 43/12/12 3/11/11 31/6/6 56/5/5
f 13/48/44 3/47/11 33/50/10 34/49/45
f 44/16/16 4/15/15 33/10/10 57/9/9
f 14/52/46 4/51/15 35/54/14 36/53/47
f 45/20/20 5/19/19 35/14/14 58/13/13
f 15/56/48 5/55/19 37/58/18 38/57/49
f 46/24/24 6/23/23 37/18/18 59/17/17
f 16/60/50 6/59/23 39/62/22 40/61/51
f 47/28/28 7/27/27 39/22/22 60/21/21
f 65/83/61 54/37/37 50/40/40 80/84/62
f 64/85/63 53/33/33 49/36/36 79/86/64
f 63/87/65 52/29/29 48/32/32 78/88/66
f 62/89/67 51/25/25 47/28/28 77/90/68
f 71/91/69 60/21/21 46/24/24 76/92/70
f 70/93/71 59/17/17 45/20/20 75/94/72
f 69/95/73 58/13/13 44/16/16 74/96/74
f 68/97/75 57/9/9 43/12/12 73/98/76
f 67/99/77 56/5/5 42/8/8 72/100/78
f 66/101/79 55/1/1 41/4/4 61/102/80
